<svg width="1440" height="945" viewBox="0 0 1440 945" fill="none" xmlns="http://www.w3.org/2000/svg">
<g clip-path="url(#clip0_28_2)">
<path d="M1642 638H942V988H1642V638Z" fill="white"/>
<path d="M1117 638H942V813H1117V638Z" fill="white"/>
<path d="M1029.5 638H942V725.5H1029.5V638Z" fill="#F59D70"/>
<path d="M1117 638H1029.5V725.5H1117V638Z" fill="#FDEFE8"/>
<path d="M1029.5 638L1117 725.5H1029.5V638Z" fill="#F6AE89"/>
<path d="M1029.5 725.5H942V813H1029.5V725.5Z" fill="#FDE9DF"/>
<path d="M1292 638H1117V813H1292V638Z" fill="white"/>
<path d="M1204.5 638H1117V725.5H1204.5V638Z" fill="#FDEFE7"/>
<path d="M1160.75 725.5C1184.91 725.5 1204.5 705.912 1204.5 681.75C1204.5 657.588 1184.91 638 1160.75 638C1136.59 638 1117 657.588 1117 681.75C1117 705.912 1136.59 725.5 1160.75 725.5Z" fill="#EF6B28"/>
<path d="M1204.5 725.5H1117V813H1204.5V725.5Z" fill="#FCE3D7"/>
<path d="M1160.75 813C1184.91 813 1204.5 793.412 1204.5 769.25C1204.5 745.088 1184.91 725.5 1160.75 725.5C1136.59 725.5 1117 745.088 1117 769.25C1117 793.412 1136.59 813 1160.75 813Z" fill="#F59C70"/>
<path d="M1292 725.5H1204.5V813H1292V725.5Z" fill="#FFFDFC"/>
<path d="M1467 638H1379.5V725.5H1467V638Z" fill="#FFFCFA"/>
<path d="M1379.5 725.5H1292V813H1379.5V725.5Z" fill="#F7B28F"/>
<path d="M1292 725.5H1379.5L1292 813V725.5Z" fill="#FFFDFD"/>
<path d="M1379.5 725.5H1467V813L1379.5 725.5Z" fill="#FACFB9"/>
<path d="M1117 813H942V988H1117V813Z" fill="white"/>
<path d="M1029.5 813V900.5H942L1029.5 813Z" fill="#F7B18E"/>
<path d="M942 900.5H1029.5L942 988V900.5Z" fill="#FCE0D2"/>
<path d="M1029.5 900.5H1117V988L1029.5 900.5Z" fill="#F59C70"/>
<path d="M1467 813H1292V988H1467V813Z" fill="white"/>
<path d="M1379.5 813H1292V900.5H1379.5V813Z" fill="#F17A3E"/>
<path d="M1379.5 900.5C1402.71 900.5 1424.96 891.281 1441.37 874.872C1457.78 858.462 1467 836.206 1467 813H1379.5" fill="#F8BC9E"/>
<path d="M1379.5 900.5H1292V988H1379.5V900.5Z" fill="#FCE4D8"/>
<path d="M1467 900.5H1379.5V988H1467V900.5Z" fill="#FEF2EC"/>
<path d="M1379.5 900.5C1402.71 900.5 1424.96 909.719 1441.37 926.128C1457.78 942.538 1467 964.794 1467 988H1379.5" fill="#FCE6DB"/>
</g>
<g clip-path="url(#clip1_28_2)">
<path d="M336 -140H-364V210H336V-140Z" fill="white"/>
<path d="M73.5 -52.5H-14V35H73.5V-52.5Z" fill="#F7B28F"/>
<path d="M-14 -52.5H73.5L-14 35V-52.5Z" fill="#FFFDFD"/>
<path d="M73.5 -52.5H161V35L73.5 -52.5Z" fill="#FACFB9"/>
<path d="M336 -140H161V35H336V-140Z" fill="white"/>
<path d="M248.5 -52.5H161V35H248.5V-52.5Z" fill="#F07132"/>
<path d="M161 35H-14V210H161V35Z" fill="white"/>
<path d="M73.5 35H-14V122.5H73.5V35Z" fill="#F17A3E"/>
<path d="M73.5 122.5C96.7064 122.5 118.962 113.281 135.372 96.8718C151.781 80.4624 161 58.2064 161 35H73.5" fill="#F8BC9E"/>
<path d="M73.5 122.5H-14V210H73.5V122.5Z" fill="#FCE4D8"/>
<path d="M161 122.5H73.5V210H161V122.5Z" fill="#FEF2EC"/>
<path d="M73.5 122.5C96.7064 122.5 118.962 131.719 135.372 148.128C151.781 164.538 161 186.794 161 210H73.5" fill="#FCE6DB"/>
<path d="M336 35H161V210H336V35Z" fill="white"/>
<path d="M248.5 35H161V122.5H248.5V35Z" fill="#FEF7F3"/>
<path d="M336 35H248.5V122.5H336V35Z" fill="#EF6926"/>
<path d="M248.5 210C248.5 186.794 257.719 164.538 274.128 148.128C290.538 131.719 312.794 122.5 336 122.5V210" fill="#F49667"/>
</g>
<defs>
<clipPath id="clip0_28_2">
<rect width="700" height="350" fill="white" transform="translate(942 638)"/>
</clipPath>
<clipPath id="clip1_28_2">
<rect width="700" height="350" fill="white" transform="translate(-364 -140)"/>
</clipPath>
</defs>
</svg>
