<svg width="20" height="20" viewBox="0 0 20 20" fill="none" xmlns="http://www.w3.org/2000/svg">
<g opacity="0.7" clip-path="url(#clip0_2_137)">
<path d="M1.66699 11.6667C1.66699 8.52397 1.66699 6.95262 2.6433 5.97631C3.61961 5 5.19096 5 8.33366 5H11.667C14.8097 5 16.381 5 17.3573 5.97631C18.3337 6.95262 18.3337 8.52397 18.3337 11.6667C18.3337 14.8094 18.3337 16.3807 17.3573 17.357C16.381 18.3333 14.8097 18.3333 11.667 18.3333H8.33366C5.19096 18.3333 3.61961 18.3333 2.6433 17.357C1.66699 16.3807 1.66699 14.8094 1.66699 11.6667Z" stroke="#452262" stroke-width="1.5"/>
<path d="M13.3337 5.00008C13.3337 3.42873 13.3337 2.64306 12.8455 2.1549C12.3573 1.66675 11.5717 1.66675 10.0003 1.66675C8.42898 1.66675 7.6433 1.66675 7.15515 2.1549C6.66699 2.64306 6.66699 3.42873 6.66699 5.00008" stroke="#452262" stroke-width="1.5"/>
<path d="M14.1667 7.50002C14.1667 7.96026 13.7936 8.33335 13.3333 8.33335C12.8731 8.33335 12.5 7.96026 12.5 7.50002C12.5 7.03978 12.8731 6.66669 13.3333 6.66669C13.7936 6.66669 14.1667 7.03978 14.1667 7.50002Z" fill="#452262"/>
<path d="M7.49967 7.50008C7.49967 7.96032 7.12658 8.33341 6.66634 8.33341C6.2061 8.33341 5.83301 7.96032 5.83301 7.50008C5.83301 7.03984 6.2061 6.66675 6.66634 6.66675C7.12658 6.66675 7.49967 7.03984 7.49967 7.50008Z" fill="#452262"/>
</g>
<defs>
<clipPath id="clip0_2_137">
<rect width="20" height="20" fill="white"/>
</clipPath>
</defs>
</svg>
