<svg width="172" height="40" viewBox="0 0 172 40" fill="none" xmlns="http://www.w3.org/2000/svg">
<mask id="mask0_2_45" style="mask-type:alpha" maskUnits="userSpaceOnUse" x="0" y="0" width="172" height="40">
<rect width="172" height="40" rx="8" transform="matrix(1 0 0 -1 0 40)" fill="#D3EFFF"/>
<path d="M15.3256 6.24311C15.8417 5.94893 16.3573 5.65424 16.8747 5.36075C17.1427 5.20859 17.2735 5.20739 17.543 5.36178C18.3916 5.84818 19.2346 6.33784 20.086 6.82269C20.244 6.91261 20.3079 7.01027 20.3055 7.13698C20.2972 7.57885 20.3026 8.02071 20.3023 8.46241C20.302 8.72254 20.2569 8.74954 19.8153 8.74971C18.7916 8.75022 17.7676 8.75194 16.7439 8.74833C16.5175 8.74747 16.3287 8.78066 16.1503 8.86301C15.6314 9.10269 15.1042 9.33634 14.5796 9.57189C14.4751 9.61883 14.3744 9.67522 14.2227 9.63378C14.0655 9.5908 14.0987 9.50793 14.0963 9.43348C14.0897 9.20395 14.085 8.97442 14.0796 8.74489C14.0838 8.21053 14.0927 7.67633 14.0886 7.14197C14.0877 7.01474 14.1543 6.91777 14.3123 6.82957C14.6561 6.63786 14.9886 6.43911 15.3256 6.24311Z" fill="#FFCF19"/>
<path d="M15.0293 6.12573C15.1142 6.17425 15.1314 6.35711 15.0471 6.40656C14.8041 6.54899 14.5612 6.69149 14.3124 6.83048C14.1544 6.91868 14.0878 7.01565 14.0887 7.14288C14.0956 8.03021 13.3641 8.74599 12.4767 8.74614C11.885 8.74623 11.2934 8.74625 10.7018 8.74598C10.3254 8.74581 10.2731 8.71589 10.2725 8.50201C10.2713 8.04828 10.2776 7.59472 10.2686 7.14133C10.2662 7.01324 10.3397 6.91748 10.4956 6.82859C11.3389 6.34769 12.1759 5.86284 13.0163 5.38023C13.3189 5.20658 13.4282 5.20606 13.726 5.37628C14.1618 5.62541 14.5947 5.87608 15.0293 6.12573Z" fill="#FFEEB1"/>
<path d="M25.0867 7.55476C25.0867 7.72274 25.1136 7.87393 25.1674 8.00831C25.2211 8.14269 25.3186 8.267 25.4597 8.38123C25.6008 8.48873 25.7956 8.58952 26.0442 8.68359C26.2928 8.77094 26.612 8.85493 27.0017 8.93556C27.7879 9.11026 28.3657 9.35215 28.7353 9.66123C29.1115 9.97032 29.2997 10.397 29.2997 10.9412C29.2997 11.2436 29.2392 11.5191 29.1183 11.7677C28.9973 12.0163 28.8293 12.228 28.6143 12.4027C28.406 12.5774 28.1541 12.7117 27.8584 12.8058C27.5628 12.8999 27.2402 12.9469 26.8908 12.9469C26.3264 12.9469 25.8091 12.8562 25.3387 12.6748C24.8751 12.4867 24.4316 12.2011 24.0083 11.8181L24.5022 11.2335C24.8717 11.5695 25.2446 11.8215 25.6209 11.9894C25.9972 12.1507 26.4306 12.2313 26.9211 12.2313C27.3981 12.2313 27.7778 12.1205 28.06 11.8987C28.3489 11.677 28.4934 11.3847 28.4934 11.0219C28.4934 10.8539 28.4665 10.7061 28.4127 10.5784C28.359 10.444 28.2649 10.3231 28.1305 10.2156C27.9962 10.1081 27.808 10.0106 27.5661 9.92328C27.331 9.83593 27.0286 9.75194 26.659 9.67131C26.2559 9.58396 25.9031 9.48317 25.6008 9.36895C25.3051 9.25472 25.0599 9.11698 24.865 8.95572C24.6702 8.79446 24.5257 8.60632 24.4316 8.3913C24.3376 8.17629 24.2905 7.92096 24.2905 7.62532C24.2905 7.34311 24.3476 7.08442 24.4619 6.84925C24.5761 6.61408 24.7373 6.4125 24.9456 6.24452C25.1539 6.06982 25.3992 5.93544 25.6814 5.84137C25.9636 5.74058 26.2727 5.69019 26.6086 5.69019C27.126 5.69019 27.5762 5.7641 27.9592 5.91192C28.3489 6.05303 28.7252 6.26804 29.088 6.55696L28.6244 7.17177C28.2952 6.903 27.9626 6.70815 27.6266 6.5872C27.2974 6.46626 26.9513 6.40578 26.5885 6.40578C26.36 6.40578 26.1517 6.43602 25.9636 6.49649C25.7822 6.55696 25.6243 6.63759 25.4899 6.73838C25.3622 6.83917 25.2614 6.96012 25.1875 7.10122C25.1203 7.24232 25.0867 7.3935 25.0867 7.55476ZM31.5639 9.86281V12.8461H30.7878V5.48861H31.5639V8.54249C31.7386 8.26028 31.967 8.02175 32.2492 7.82689C32.5314 7.62532 32.8976 7.52453 33.3478 7.52453C33.6636 7.52453 33.9425 7.57492 34.1843 7.67571C34.433 7.7765 34.6413 7.92096 34.8092 8.1091C34.9839 8.29052 35.115 8.50889 35.2023 8.76422C35.2964 9.01955 35.3434 9.30176 35.3434 9.61084V12.8461H34.5673V9.80234C34.5673 9.31855 34.443 8.93556 34.1944 8.65335C33.9458 8.37115 33.5897 8.23004 33.1261 8.23004C32.9043 8.23004 32.696 8.27036 32.5012 8.35099C32.3131 8.4249 32.1484 8.53577 32.0073 8.68359C31.8662 8.82469 31.7554 8.99603 31.6747 9.19761C31.6008 9.39918 31.5639 9.62092 31.5639 9.86281ZM37.9055 6.49649H37.0186V5.63979H37.9055V6.49649ZM37.8451 12.8461H37.069V7.6354H37.8451V12.8461ZM26.1866 17.6556H27.8395V18.3208H26.1967V22.8461H25.4206V18.3208H24.705V17.6455H25.4206V17.1919C25.4206 16.6208 25.555 16.1874 25.8238 15.8918C26.0992 15.5961 26.489 15.4483 26.9929 15.4483C27.1743 15.4483 27.3289 15.4584 27.4565 15.4785C27.5909 15.4987 27.7219 15.5323 27.8496 15.5793V16.2546C27.7085 16.2143 27.5808 16.184 27.4666 16.1639C27.3524 16.137 27.2281 16.1236 27.0937 16.1236C26.489 16.1236 26.1866 16.4931 26.1866 17.2322V17.6556ZM29.8773 18.3208V21.3645C29.8773 21.6871 29.9579 21.9122 30.1192 22.0398C30.2805 22.1675 30.4921 22.2313 30.7542 22.2313C30.8886 22.2313 31.0129 22.2179 31.1271 22.191C31.248 22.1641 31.3757 22.1171 31.5101 22.0499V22.7151C31.3757 22.789 31.2312 22.8428 31.0767 22.8764C30.9289 22.9167 30.7609 22.9368 30.5728 22.9368C30.3645 22.9368 30.1696 22.91 29.9882 22.8562C29.8068 22.8025 29.6489 22.7185 29.5145 22.6042C29.3868 22.4833 29.286 22.3288 29.2121 22.1406C29.1382 21.9525 29.1012 21.7274 29.1012 21.4653V18.3208H28.3756V17.6354H29.1012V16.0631H29.8773V17.6354H31.5302V18.3208H29.8773ZM37.6309 17.6354L35.4438 23.0175C35.2221 23.555 34.9735 23.9346 34.698 24.1564C34.4292 24.3781 34.1 24.489 33.7102 24.489C33.4952 24.489 33.3004 24.4655 33.1257 24.4184C32.951 24.3781 32.7763 24.3143 32.6016 24.2269L32.8636 23.6121C32.9913 23.6793 33.1156 23.7263 33.2365 23.7532C33.3642 23.7868 33.512 23.8036 33.68 23.8036C33.9152 23.8036 34.1134 23.7331 34.2747 23.592C34.4359 23.4509 34.5938 23.1955 34.7484 22.826L32.3798 17.6354H33.2365L35.1314 21.9794L36.8044 17.6354H37.6309Z" fill="#FFCF19"/>
</mask>
<g mask="url(#mask0_2_45)">
<rect x="-10.9456" y="-3.44086" width="234.545" height="73.5484" rx="8" fill="url(#paint0_radial_2_45)"/>
<path opacity="0.4" d="M154.896 23.2239L128.017 45.791C126.13 47.403 123.301 47.403 121.415 45.791C119.528 44.1791 119.528 41.7612 121.415 40.1493L130.692 32.0592C137.13 26.4453 140.349 23.6384 140.349 20C140.349 16.3616 137.13 13.5547 130.692 7.94083L121.415 -0.149254C119.528 -1.76119 119.528 -4.17911 121.415 -5.79105C122.358 -6.59702 123.301 -7 124.716 -7C126.13 -7 127.074 -6.59702 128.017 -5.79105L154.896 16.7761C156.783 18.791 156.783 21.209 154.896 23.2239C154.896 22.8209 154.896 22.8209 154.896 23.2239Z" fill="white"/>
</g>
<defs>
<radialGradient id="paint0_radial_2_45" cx="0" cy="0" r="1" gradientUnits="userSpaceOnUse" gradientTransform="translate(-10.9456 -3.44086) rotate(17.9051) scale(246.483 144.282)">
<stop stop-color="#F55B1D"/>
<stop offset="1" stop-color="#F96124"/>
</radialGradient>
</defs>
</svg>
