<svg width="18" height="18" viewBox="0 0 18 18" fill="none" xmlns="http://www.w3.org/2000/svg">
<g clip-path="url(#clip0_2_787)">
<path fill-rule="evenodd" clip-rule="evenodd" d="M9.00222 0C15.6962 0 18 2.30826 18 9.00222C18 15.6917 15.6962 18 9.00222 18C2.30826 18 0 15.6917 0 9.00222C0 2.30826 2.30826 0 9.00222 0Z" fill="#F55B1D"/>
<path fill-rule="evenodd" clip-rule="evenodd" d="M7.91912 7.91913H10.0809H13.8363C14.4311 7.91913 14.9149 8.40298 14.9149 9.00224C14.9149 9.59706 14.4311 10.0809 13.8363 10.0809H10.0809C9.48607 10.0809 7.91912 10.0809 7.91912 10.0809H4.16819C3.57337 10.0809 3.08508 9.59706 3.08508 9.00224C3.08508 8.40298 3.57337 7.91913 4.16819 7.91913H7.91912Z" fill="#EBECEC"/>
</g>
<defs>
<clipPath id="clip0_2_787">
<rect width="18" height="18" fill="white"/>
</clipPath>
</defs>
</svg>
