<svg width="369" height="85" viewBox="0 0 369 85" fill="none" xmlns="http://www.w3.org/2000/svg">
<path d="M0 14.0509C0 10.2807 0 8.39566 0.501866 6.87183C1.49439 3.85819 3.85819 1.49439 6.87183 0.501866C8.39566 0 10.2807 0 14.0509 0H18.753C23.9162 0 28.1018 4.18563 28.1018 9.34886C28.1018 14.5455 32.3396 18.7448 37.536 18.6973L325.037 16.0727C329.447 16.0324 333 12.4463 333 8.03652C333 3.59807 336.598 0 341.037 0H351C358.499 0 362.249 0 364.878 1.90983C365.727 2.52663 366.473 3.2732 367.09 4.12215C369 6.7508 369 10.5005 369 18V64.5C369 73.9281 369 78.6421 366.071 81.5711C363.142 84.5 358.428 84.5 349 84.5H20C10.5719 84.5 5.85786 84.5 2.92893 81.5711C0 78.6421 0 73.9281 0 64.5V14.0509Z" fill="#989898" fill-opacity="0.15"/>
<path d="M0.5 14.0509C0.5 10.2413 0.506325 8.45667 0.976772 7.02824C1.91967 4.16528 4.16528 1.91967 7.02824 0.976772C8.45667 0.506325 10.2413 0.5 14.0509 0.5H18.753C23.64 0.5 27.6018 4.46177 27.6018 9.34886C27.6018 14.8234 32.0663 19.2473 37.5406 19.1973L325.041 16.5727C329.725 16.5299 333.5 12.7207 333.5 8.03652C333.5 3.87421 336.874 0.5 341.037 0.5H351C354.761 0.5 357.541 0.500686 359.712 0.73582C361.873 0.969939 363.369 1.43167 364.584 2.31434C365.39 2.9003 366.1 3.60954 366.686 4.41604C367.568 5.63093 368.03 7.12747 368.264 9.28838C368.499 11.4586 368.5 14.2391 368.5 18V64.5C368.5 69.2282 368.499 72.724 368.138 75.4061C367.78 78.0738 367.074 79.8614 365.718 81.2175C364.361 82.5736 362.574 83.2797 359.906 83.6383C357.224 83.9989 353.728 84 349 84H20C15.2718 84 11.776 83.9989 9.0939 83.6383C6.42621 83.2797 4.63857 82.5736 3.28249 81.2175C1.9264 79.8614 1.22032 78.0738 0.861658 75.4061C0.501062 72.724 0.5 69.2282 0.5 64.5V14.0509Z" stroke="#452262" stroke-opacity="0.1"/>
</svg>
