<svg
            width="15"
            height="15"
            viewBox="0 0 15 15"
            fill="none"
            xmlns="http://www.w3.org/2000/svg"
          >
            <path
              opacity="0.25"
              d="M13.9163 7.71291C13.9163 6.24015 10.9316 5.04624 7.24968 5.04624C3.56778 5.04624 0.583008 6.24015 0.583008 7.71291C0.583008 9.18567 3.56778 10.3796 7.24968 10.3796C10.9316 10.3796 13.9163 9.18567 13.9163 7.71291Z"
              fill="url(#paint0_linear_0_1)"
            />
            <path
              fill-rule="evenodd"
              clip-rule="evenodd"
              d="M1.36903 5.8511C1.66069 5.66917 1.9914 5.50643 2.34993 5.36301C2.92956 5.13116 3.60237 4.94169 4.34061 4.80381C4.4785 4.06556 4.66797 3.39276 4.89982 2.81313C5.04323 2.45459 5.20597 2.12389 5.38791 1.83222C3.47953 2.43584 1.97265 3.94273 1.36903 5.8511ZM7.24968 0.546204C3.29163 0.546204 0.0830078 3.75483 0.0830078 7.71287C0.0830078 11.6709 3.29163 14.8796 7.24968 14.8796C11.2077 14.8796 14.4164 11.6709 14.4164 7.71287C14.4164 3.75483 11.2077 0.546204 7.24968 0.546204ZM7.24968 1.5462C7.06327 1.5462 6.8351 1.63859 6.57497 1.91366C6.31383 2.18978 6.05564 2.61617 5.8283 3.18452C5.65766 3.6111 5.50994 4.10374 5.39204 4.64787C5.98553 4.58138 6.60863 4.5462 7.24968 4.5462C7.89072 4.5462 8.51382 4.58138 9.10728 4.64787C8.98941 4.10374 8.84169 3.6111 8.67105 3.18452C8.44371 2.61617 8.18552 2.18978 7.92438 1.91366C7.66425 1.63859 7.43608 1.5462 7.24968 1.5462ZM10.1588 4.80381C10.0209 4.06556 9.83138 3.39276 9.59958 2.81313C9.45608 2.45459 9.29338 2.12389 9.11148 1.83222C11.0198 2.43584 12.5267 3.94273 13.1303 5.8511C12.8387 5.66917 12.508 5.50643 12.1494 5.36301C11.5698 5.13116 10.897 4.94169 10.1588 4.80381ZM9.28548 5.67706C8.6491 5.59257 7.96471 5.5462 7.24968 5.5462C6.53464 5.5462 5.85025 5.59257 5.21386 5.67706C5.12937 6.31344 5.08301 6.99784 5.08301 7.71287C5.08301 8.42791 5.12937 9.11228 5.21386 9.74868C5.85025 9.83318 6.53464 9.87958 7.24968 9.87958C7.96471 9.87958 8.6491 9.83318 9.28548 9.74868C9.36998 9.11228 9.41638 8.42791 9.41638 7.71287C9.41638 6.99784 9.36998 6.31344 9.28548 5.67706ZM10.3147 9.57048C10.3812 8.97702 10.4164 8.35392 10.4164 7.71287C10.4164 7.07182 10.3812 6.44873 10.3147 5.85523C10.8588 5.97314 11.3515 6.12086 11.778 6.29149C12.3464 6.51883 12.7728 6.77703 13.0489 7.03816C13.324 7.29829 13.4164 7.52646 13.4164 7.71287C13.4164 7.89928 13.324 8.12745 13.0489 8.38758C12.7728 8.64871 12.3464 8.90691 11.778 9.13428C11.3515 9.30488 10.8588 9.45258 10.3147 9.57048ZM9.10728 10.7779C8.51382 10.8444 7.89072 10.8796 7.24968 10.8796C6.60863 10.8796 5.98553 10.8444 5.39204 10.7779C5.50994 11.322 5.65766 11.8147 5.8283 12.2412C6.05564 12.8096 6.31383 13.236 6.57497 13.5121C6.8351 13.7872 7.06327 13.8796 7.24968 13.8796C7.43608 13.8796 7.66425 13.7872 7.92438 13.5121C8.18552 13.236 8.44371 12.8096 8.67105 12.2412C8.84169 11.8147 8.98941 11.322 9.10728 10.7779ZM9.11148 13.5935C9.29338 13.3019 9.45608 12.9712 9.59958 12.6126C9.83138 12.033 10.0209 11.3602 10.1588 10.622C10.897 10.4841 11.5698 10.2946 12.1494 10.0627C12.508 9.91928 12.8387 9.75658 13.1303 9.57468C12.5267 11.483 11.0198 12.9899 9.11148 13.5935ZM5.38791 13.5935C3.47953 12.9899 1.97265 11.483 1.36903 9.57468C1.66069 9.75658 1.9914 9.91928 2.34993 10.0627C2.92956 10.2946 3.60237 10.4841 4.34061 10.622C4.4785 11.3602 4.66797 12.033 4.89982 12.6126C5.04323 12.9712 5.20597 13.3019 5.38791 13.5935ZM4.18468 9.57048C3.64055 9.45258 3.1479 9.30488 2.72133 9.13428C2.15297 8.90691 1.72658 8.64871 1.45046 8.38758C1.1754 8.12745 1.08301 7.89928 1.08301 7.71287C1.08301 7.52646 1.1754 7.29829 1.45046 7.03816C1.72658 6.77703 2.15297 6.51883 2.72133 6.29149C3.1479 6.12086 3.64055 5.97314 4.18468 5.85523C4.11819 6.44873 4.08301 7.07182 4.08301 7.71287C4.08301 8.35392 4.11819 8.97702 4.18468 9.57048Z"
              fill="url(#paint1_linear_0_1)"
            />
            <defs>
              <linearGradient
                id="paint0_linear_0_1"
                x1="12.8195"
                y1="9.06675"
                x2="4.42224"
                y2="-9.8872"
                gradientUnits="userSpaceOnUse"
              >
                <stop stop-color="#452262" />
                <stop offset="1" stop-opacity="0" />
              </linearGradient>
              <linearGradient
                id="paint1_linear_0_1"
                x1="3.61121"
                y1="13.7005"
                x2="30.9771"
                y2="-16.6097"
                gradientUnits="userSpaceOnUse"
              >
                <stop stop-color="#452262" />
                <stop offset="1" stop-opacity="0" />
              </linearGradient>
            </defs>
          </svg>