<svg width="155" height="71" viewBox="0 0 155 71" fill="none" xmlns="http://www.w3.org/2000/svg">
<g clip-path="url(#clip0_1_1958)">
<path fill-rule="evenodd" clip-rule="evenodd" d="M79.167 11.6272V29.5547L79.4864 29.5972L79.8072 29.7835L81.6514 31.1313L83.497 32.5161L84.9167 33.7551L86.3364 34.9941L88.0603 36.7458L89.7842 38.4974L90.4188 39.2247L91.0536 39.9521L91.9014 41.0681L92.7492 42.1841L93.5974 43.5312L94.4456 44.8782L94.8578 45.5872L95.2698 46.2962L95.5332 46.7925L95.7967 47.2888L96.4238 48.6676L97.0509 50.0464L97.5688 51.5436L98.1206 53.3072L98.1969 52.9813L98.4667 51.4008L98.7788 49.8411L99.2717 47.9977L99.7648 46.1544L100.174 44.9491L100.584 43.7439L101.187 42.1841L101.791 40.6244L103.243 37.7339L104.695 34.8434L103.707 33.464L102.719 32.0847L101.652 30.7536L100.585 29.4225L99.3282 28.0046L98.0712 26.5866L95.824 24.3809L93.5768 22.1749L91.8768 20.7208L90.1768 19.2666L88.1857 17.7375L86.1944 16.2082L84.2778 14.8696L82.3613 13.5312L80.8592 12.5792L79.167 11.6272ZM49.091 17.1572V17.1375L48.9233 17.5309L49.091 17.1572ZM47.553 19.6732L46.2747 21.9074L44.883 24.3179L43.4911 26.7284L42.9978 27.5792L42.5043 28.43L42.2354 28.8992L41.9665 29.3685L41.4235 30.3171L40.8805 31.2659L40.0985 32.6129L39.3167 33.96L38.2093 35.8742L37.102 37.7885L35.7744 40.0926L34.4469 42.3968L33.1193 44.701L31.7918 47.0052L30.6968 48.8952L29.6019 50.785L28.972 51.8491L28.3422 52.9131V53.1265V53.3398L31.714 53.249L35.0858 53.1584L36.3635 53.0196L37.6412 52.8808L38.635 52.6781L39.6287 52.4755L41.092 52.0408L42.5554 51.606L43.8604 51.0213L45.1655 50.4363L46.3751 49.7104L47.5847 48.9845L48.6466 48.1838L49.7085 47.3832L50.9507 46.1148L52.193 44.8465V44.6743V44.5022L51.5777 43.6977L50.9625 42.8931L50.2752 41.7587L49.588 40.6244L48.7846 39.0592L47.9812 37.494L47.458 35.8688L46.9347 34.2436L46.735 33.1801L46.5351 32.1166L46.3694 30.388L46.2037 28.6594L46.3582 26.9688L46.5127 25.278L46.7989 23.8763L47.0849 22.4746L47.5194 21.1505L47.9539 19.8264L48.4386 18.6787L48.9233 17.5309L49.091 17.1375L47.553 19.6732ZM11.448 39.4594V53.3151H18.4157H25.3835L25.3023 52.9251L25.2211 52.5352L24.8754 50.5501L24.5297 48.5649L24.1756 47.2096L23.8215 45.8544L23.1823 43.9435L22.5431 42.0327L21.6782 40.1233L20.8134 38.2139L19.9411 36.6541L19.0689 35.0944L18.183 33.7273L17.2972 32.3603L16.3348 31.1041L15.3724 29.8479L14.2019 28.5009L13.0314 27.1538L12.2398 26.3788L11.448 25.6037V39.4594ZM131.837 39.2657V53.3151H138.962H145.915L145.892 53.2761L145.469 50.8916L145.178 49.2481L144.749 47.4944L144.32 45.7408L143.743 44.0394L143.165 42.3378L142.39 40.5594L141.615 38.781L140.892 37.434L140.168 36.0869L139.461 34.9526L138.754 33.8182L138.245 33.0383L137.736 32.2584L136.341 30.4635L134.945 28.6683L133.52 27.1667L131.829 25.3602L131.837 25.665V39.2657Z" fill="#452262"/>
<path fill-rule="evenodd" clip-rule="evenodd" d="M11.448 18.5445V25.6036L12.2398 26.3787L13.0314 27.1538L14.2019 28.5008L15.3724 29.8479L16.3348 31.104L17.2972 32.3602L18.183 33.7273L19.0689 35.0943L19.9411 36.6541L20.8134 38.2138L21.6724 40.1105L22.5315 42.0071L23.2192 44.0807L23.9067 46.1544L24.2793 47.6432L24.6518 49.1321L24.9914 51.0463L25.3308 52.9605L25.3459 32.2229L25.3609 11.4854H18.4045H11.448V18.5445ZM131.829 11.4854V25.3602L133.453 27.0986L134.928 28.646L136.332 30.4522L137.736 32.2584L138.245 33.0383L138.754 33.8181L139.461 34.9525L140.168 36.0869L140.892 37.4339L141.615 38.781L142.39 40.5594L143.165 42.3378L143.745 44.0453L144.324 45.7528L144.764 47.5583L145.879 53.2761V32.2229L145.892 11.4854H138.936H131.829ZM52.0956 11.8044L51.9816 11.9816L51.8251 12.2652L51.6687 12.5488L50.4855 14.5948L49.3022 16.6409L48.634 18.2157L47.9657 19.7905L47.5253 21.1326L47.0849 22.4745L46.7989 23.8763L46.5127 25.2779L46.3582 26.9687L46.2037 28.6593L46.3694 30.388L46.5351 32.1166L46.735 33.1801L46.9347 34.2435L47.458 35.8688L47.9812 37.4939L48.7846 39.0592L49.588 40.6243L50.2764 41.7587L50.9649 42.8931L51.9875 44.2401L53.0101 45.5872L53.8438 46.3767L54.6774 47.1661L55.7422 48.0197L56.8069 48.8731L57.6245 49.3917L58.4421 49.9101L59.5411 50.459L60.6401 51.0079L61.9178 51.5074L63.1955 52.007L64.9701 52.4389L66.7447 52.8708L68.0934 53.0144L69.4421 53.1581L72.9055 53.2505L76.3688 53.3431L76.2681 53.0811L76.1675 52.819L73.2855 47.856L70.4035 42.8931L69.297 40.9788L68.1904 39.0646L67.1701 37.2921L66.1497 35.5197L64.7988 33.1801L63.4478 30.8404L62.3666 28.9717L61.2853 27.103L61.0183 26.6321L60.7511 26.1612L59.9284 24.7432L59.1057 23.3253L58.0401 21.4819L56.9746 19.6386L55.641 17.299L54.3073 14.9593L53.3565 13.2948L52.4059 11.6303L52.3078 11.6287L52.2097 11.6271L52.0956 11.8044ZM124.923 12.7822L123.39 13.9373L122.751 14.4473L122.112 14.9572L120.198 16.589L118.283 18.2206L116.001 20.4894L113.719 22.7581L113.012 23.538L112.305 24.3178L111.172 25.6649L110.039 27.012L109.178 28.1463L108.316 29.2807L107.603 30.2826L106.889 31.2844L105.994 32.6931L105.099 34.1017L103.443 37.363L101.787 40.6243L101.185 42.1841L100.584 43.7438L100.175 44.9491L99.7652 46.1544L99.3232 47.785L98.8814 49.4156L98.4855 51.3066L98.0986 53.3173L112.53 53.2807L126.655 53.2441L126.691 32.4356L126.727 11.6271L124.923 12.7822ZM79.2016 41.3688L79.238 53.2441L86.1555 53.2809L93.0731 53.3177L93.112 48.0344L93.1509 42.7513L92.1474 41.4025L91.144 40.0539L90.4641 39.2756L89.7842 38.4974L88.0603 36.7458L86.3364 34.9941L84.9167 33.756L83.497 32.518L81.7934 31.2458L80.0898 29.9736L79.7387 29.7336L79.1654 29.3463V29.4934L79.2016 41.3688Z" fill="#F55B1D"/>
</g>
<path d="M62.9919 65.6728L65.2166 63.0383V70.766H62.9919V65.6728Z" fill="#452262"/>
<path d="M62.9919 58.7061H65.2166L62.9919 61.0478V58.7061Z" fill="#452262"/>
<path fill-rule="evenodd" clip-rule="evenodd" d="M34.5693 70.5246C33.5087 69.595 32.1202 69.0354 30.6024 69.0354C29.0846 69.0354 27.6961 69.595 26.6355 70.5246H24.031L24.0913 70.4386L25.8161 67.2708L28.4983 62.3384L29.7917 64.7056L28.3258 67.3999C29.05 67.1847 29.8091 67.0728 30.6024 67.0728C31.3957 67.0728 32.1633 67.1933 32.8876 67.4085L32.0597 65.8763L31.8872 65.5578L31.2923 64.4646L30.6024 63.1992L29.3088 60.832L29.8262 59.8851L30.611 58.4475L37.1135 70.4386L37.1738 70.5246H34.5693Z" fill="#F55B1D"/>
<path d="M50.698 66.1535L52.7158 63.8118V67.5699C52.7158 69.3463 52.076 70.4484 50.698 70.4484V66.1535Z" fill="#F55B1D"/>
<path d="M38.0527 58.894H40.875L46.2721 68.2698L50.6849 58.894H52.7027L52.7027 60.7674L50.6849 62.8164L50.6849 59.9961L45.9476 70.0468C45.8152 70.3276 45.5326 70.5068 45.2222 70.5068L40.875 62.831V70.5068H38.9544V60.6501L38.0527 58.894Z" fill="#F55B1D"/>
<path d="M136.917 68.9486H139.397C140.665 68.9486 141.691 68.557 142.474 67.7738C143.257 66.9905 143.649 65.9897 143.649 64.7714C143.649 63.553 143.257 62.5522 142.474 61.769C141.691 60.9857 140.665 60.5941 139.397 60.5941H136.917V68.9486ZM134.754 70.8135V58.7292H139.49C141.405 58.7292 142.953 59.3136 144.134 60.4822C145.315 61.6384 145.905 63.0681 145.905 64.7714C145.905 66.4746 145.315 67.9105 144.134 69.0792C142.953 70.2354 141.405 70.8135 139.49 70.8135H134.754Z" fill="#452262"/>
<path d="M122.239 70.8135V58.7292H131.619V60.5941H124.402V63.5406H131.208V65.3868H124.402V68.9486H131.88V70.8135H122.239Z" fill="#452262"/>
<path d="M108.686 70.8135V58.7292H113.758C115.474 58.7292 116.792 59.1644 117.712 60.0346C118.632 60.8925 119.092 61.9927 119.092 63.3354C119.092 64.1684 118.874 64.9454 118.439 65.6665C118.004 66.3876 117.395 66.9284 116.611 67.2889L119.26 70.8135H116.611L114.504 67.9043C114.144 67.9292 113.503 67.9416 112.583 67.9416H110.849V69.783V70.8135H108.686ZM110.849 66.0768H113.889C114.784 66.0768 115.499 65.8157 116.033 65.2935C116.568 64.7714 116.835 64.1187 116.835 63.3354C116.835 62.5522 116.568 61.8995 116.033 61.3773C115.499 60.8552 114.79 60.5941 113.907 60.5941H110.849V66.0768Z" fill="#452262"/>
<path d="M103.747 69.6386C102.765 70.5462 101.559 71 100.129 71C98.6993 71 97.4871 70.5462 96.4925 69.6386C95.5104 68.7311 95.0193 67.55 95.0193 66.0954V58.7292C96.3782 59.7154 97.1825 61.2928 97.1825 62.9719V66.0208C97.1825 66.9035 97.4685 67.6308 98.0403 68.2027C98.6122 68.7622 99.3084 69.0419 100.129 69.0419C100.95 69.0419 101.646 68.7622 102.218 68.2027C102.79 67.6308 103.075 66.9035 103.075 66.0208V62.9719C103.075 61.2928 103.88 59.7154 105.239 58.7292V66.0954C105.239 67.55 104.741 68.7311 103.747 69.6386Z" fill="#452262"/>
<path d="M82.4043 69.2656C82.8368 68.4198 83.9408 68.206 84.8181 68.5706C85.5739 68.8848 86.3855 69.0418 87.2529 69.0418C87.9491 69.0418 88.5583 68.8864 89.0805 68.5756C89.6026 68.2648 89.8637 67.8483 89.8637 67.3262C89.8637 66.9781 89.7269 66.6859 89.4534 66.4497C89.1799 66.2011 88.9002 66.027 88.6143 65.9275C88.3283 65.8281 87.918 65.7162 87.3835 65.5919C86.8489 65.4675 86.4013 65.3557 86.0408 65.2562C85.6802 65.1443 85.2824 64.9889 84.8473 64.79C84.4121 64.5786 84.064 64.3548 83.8029 64.1186C83.5419 63.8824 83.3181 63.5778 83.1316 63.2049C82.9575 62.8319 82.8705 62.4154 82.8705 61.9554C82.8705 60.8862 83.2994 60.0533 84.1573 59.4565C85.0151 58.8473 86.047 58.5427 87.2529 58.5427C88.8318 58.5427 90.2615 58.9779 91.5421 59.8481C91.0925 60.7373 89.9727 61.0168 89.0147 60.743C88.4498 60.5815 87.8626 60.5008 87.2529 60.5008C86.9421 60.5008 86.6313 60.5443 86.3205 60.6314C86.0097 60.706 85.7237 60.8614 85.4627 61.0976C85.2016 61.3214 85.071 61.6011 85.071 61.9368C85.071 62.3719 85.27 62.7013 85.6678 62.9251C86.0781 63.1489 86.7245 63.3665 87.6072 63.5778C88.2661 63.727 88.8318 63.8949 89.3042 64.0813C89.7767 64.2554 90.2429 64.4854 90.7029 64.7713C91.1629 65.0448 91.511 65.3992 91.7472 65.8343C91.9959 66.2694 92.1202 66.7667 92.1202 67.3262C92.1202 68.5072 91.6353 69.4148 90.6656 70.0489C89.6959 70.6829 88.5521 70.9999 87.2343 70.9999C85.2575 70.9999 83.6475 70.4218 82.4043 69.2656Z" fill="#452262"/>
<path d="M68.8101 70.8134V59.4208L68.4951 58.7291H71.0107L75.3371 64.6594C75.5858 65.0075 75.8655 65.4239 76.1763 65.9088C76.4871 66.3812 76.7295 66.7666 76.9036 67.065L77.1833 67.5126V63.8229C77.1833 61.7428 77.954 59.7365 79.3465 58.1914V70.8134H77.1087L72.9874 65.1815C72.6766 64.7588 72.3533 64.2926 72.0177 63.7829C71.682 63.2607 71.4209 62.8504 71.2344 62.5521L70.9734 62.1045L71 67.8312C71.0063 69.199 70.1171 70.4099 68.8101 70.8134Z" fill="#452262"/>
<path d="M11.2402 65.3922L13.4649 62.7578V70.4855H11.2402V65.3922Z" fill="#452262"/>
<path d="M11.2402 58.4258H13.4649L11.2402 60.7675V58.4258Z" fill="#452262"/>
<defs>
<clipPath id="clip0_1_1958">
<rect width="137.284" height="57.9944" fill="white" transform="translate(8.60864)"/>
</clipPath>
</defs>
</svg>
