<svg width="17" height="15" viewBox="0 0 17 15" fill="none" xmlns="http://www.w3.org/2000/svg">
<path opacity="0.25" d="M0.827148 4.00452C0.827148 2.30861 2.20132 0.933777 3.89641 0.933777H13.1041C14.7992 0.933777 16.1733 2.30861 16.1733 4.00452V11.6812C16.1733 13.3771 14.7992 14.752 13.1041 14.752H3.89641C2.20132 14.752 0.827148 13.3771 0.827148 11.6812V4.00452Z" fill="url(#paint0_linear_0_1)"/>
<path fill-rule="evenodd" clip-rule="evenodd" d="M3.4175 4.45298C3.5938 4.18845 3.95115 4.11689 4.21556 4.29328L7.11695 6.2285C7.95456 6.78714 9.04582 6.78714 9.88352 6.2285L12.7848 4.29328C13.0493 4.11689 13.4066 4.18845 13.5829 4.45298C13.7592 4.71752 13.6878 5.07505 13.4233 5.25143L10.522 7.18656C9.29762 8.00314 7.70276 8.00314 6.47852 7.18656L3.57713 5.25143C3.31272 5.07505 3.24119 4.71752 3.4175 4.45298Z" fill="url(#paint1_linear_0_1)"/>
<defs>
<linearGradient id="paint0_linear_0_1" x1="4.60463" y1="13.6153" x2="30.5663" y2="-18.3192" gradientUnits="userSpaceOnUse">
<stop stop-color="#452262"/>
<stop offset="1" stop-color="white" stop-opacity="0"/>
</linearGradient>
<linearGradient id="paint1_linear_0_1" x1="5.87072" y1="7.50268" x2="9.82282" y2="-5.08426" gradientUnits="userSpaceOnUse">
<stop stop-color="#452262"/>
<stop offset="1" stop-color="white" stop-opacity="0"/>
</linearGradient>
</defs>
</svg>
