<svg width="24" height="20" viewBox="0 0 24 20" fill="none" xmlns="http://www.w3.org/2000/svg">
<g opacity="0.7">
<path d="M7.63289 9.05841C7.54956 9.05008 7.44956 9.05008 7.35789 9.05841C5.37456 8.99175 3.79956 7.36675 3.79956 5.36675C3.79956 3.32508 5.44956 1.66675 7.49956 1.66675C9.54123 1.66675 11.1996 3.32508 11.1996 5.36675C11.1912 7.36675 9.61623 8.99175 7.63289 9.05841Z" stroke="#452262" stroke-width="1.5" stroke-linecap="round" stroke-linejoin="round"/>
<path d="M13.6747 3.33325C15.2914 3.33325 16.5914 4.64159 16.5914 6.24992C16.5914 7.82492 15.3414 9.10825 13.7831 9.16659C13.7164 9.15825 13.6414 9.15825 13.5664 9.16659" stroke="#452262" stroke-width="1.5" stroke-linecap="round" stroke-linejoin="round"/>
<path d="M3.46636 12.1333C1.44969 13.4833 1.44969 15.6833 3.46636 17.0249C5.75802 18.5583 9.51636 18.5583 11.808 17.0249C13.8247 15.6749 13.8247 13.4749 11.808 12.1333C9.52469 10.6083 5.76636 10.6083 3.46636 12.1333Z" stroke="#452262" stroke-width="1.5" stroke-linecap="round" stroke-linejoin="round"/>
<path d="M15.2832 16.6667C15.8832 16.5417 16.4499 16.3001 16.9165 15.9417C18.2165 14.9667 18.2165 13.3584 16.9165 12.3834C16.4582 12.0334 15.8999 11.8001 15.3082 11.6667" stroke="#452262" stroke-width="1.5" stroke-linecap="round" stroke-linejoin="round"/>
</g>
</svg>
