<svg width="18" height="18" viewBox="0 0 18 18" fill="none" xmlns="http://www.w3.org/2000/svg">
<path fill-rule="evenodd" clip-rule="evenodd" d="M4.797 0H13.194C16.254 0 18 1.728 18 4.797V13.203C18 16.254 16.263 18 13.203 18H4.797C1.728 18 0 16.254 0 13.203V4.797C0 1.728 1.728 0 4.797 0ZM9.738 9.747H12.294C12.708 9.738 13.041 9.405 13.041 8.991C13.041 8.577 12.708 8.244 12.294 8.244H9.738V5.706C9.738 5.292 9.405 4.959 8.991 4.959C8.577 4.959 8.244 5.292 8.244 5.706V8.244H5.697C5.499 8.244 5.31 8.325 5.166 8.46C5.02916 8.60313 4.95193 8.79299 4.95 8.991C4.95 9.405 5.283 9.738 5.697 9.747H8.244V12.294C8.244 12.708 8.577 13.041 8.991 13.041C9.405 13.041 9.738 12.708 9.738 12.294V9.747Z" fill="#A9A9A9"/>
</svg>
