<svg width="20" height="20" viewBox="0 0 20 20" fill="none" xmlns="http://www.w3.org/2000/svg">
<g opacity="0.7" clip-path="url(#clip0_2_154)">
<path d="M1.66699 11.6667C1.66699 8.52397 1.66699 6.95262 2.6433 5.97631C3.61961 5 5.19096 5 8.33366 5H11.667C14.8097 5 16.381 5 17.3573 5.97631C18.3337 6.95262 18.3337 8.52397 18.3337 11.6667C18.3337 14.8094 18.3337 16.3807 17.3573 17.357C16.381 18.3333 14.8097 18.3333 11.667 18.3333H8.33366C5.19096 18.3333 3.61961 18.3333 2.6433 17.357C1.66699 16.3807 1.66699 14.8094 1.66699 11.6667Z" stroke="#452262" stroke-width="1.5"/>
<path d="M13.3337 5.00008C13.3337 3.42873 13.3337 2.64306 12.8455 2.1549C12.3573 1.66675 11.5717 1.66675 10.0003 1.66675C8.42898 1.66675 7.6433 1.66675 7.15515 2.1549C6.66699 2.64306 6.66699 3.42873 6.66699 5.00008" stroke="#452262" stroke-width="1.5"/>
<path d="M9.99967 14.4444C10.9201 14.4444 11.6663 13.8225 11.6663 13.0555C11.6663 12.2884 10.9201 11.6666 9.99967 11.6666C9.0792 11.6666 8.33301 11.0448 8.33301 10.2777C8.33301 9.51063 9.0792 8.88881 9.99967 8.88881M9.99967 14.4444C9.0792 14.4444 8.33301 13.8225 8.33301 13.0555M9.99967 14.4444V14.9999M9.99967 8.33325V8.88881M9.99967 8.88881C10.9201 8.88881 11.6663 9.51063 11.6663 10.2777" stroke="#452262" stroke-width="1.5" stroke-linecap="round"/>
</g>
<defs>
<clipPath id="clip0_2_154">
<rect width="20" height="20" fill="white"/>
</clipPath>
</defs>
</svg>
