<svg width="552" height="61" viewBox="0 0 552 61" fill="none" xmlns="http://www.w3.org/2000/svg">
<path d="M0 14.0509C0 10.2807 0 8.39566 0.501866 6.87183C1.49439 3.85819 3.85819 1.49439 6.87183 0.501866C8.39566 0 10.2807 0 14.0509 0H18.7101C23.897 0 28.1018 4.20482 28.1018 9.39173C28.1018 14.5786 32.3066 18.7835 37.4935 18.7835H323.608C328.795 18.7835 333 14.5786 333 9.39173C333 4.20482 337.205 0 342.392 0H532C541.428 0 546.142 0 549.071 2.92893C552 5.85786 552 10.5719 552 20V40.5C552 49.9281 552 54.6421 549.071 57.5711C546.142 60.5 541.428 60.5 532 60.5H20C10.5719 60.5 5.85786 60.5 2.92893 57.5711C0 54.6421 0 49.9281 0 40.5V14.0509Z" fill="#989898" fill-opacity="0.1"/>
<path d="M0.5 14.0509C0.5 10.2413 0.506325 8.45667 0.976772 7.02824C1.91967 4.16528 4.16528 1.91967 7.02824 0.976772C8.45667 0.506325 10.2413 0.5 14.0509 0.5H18.7101C23.6209 0.5 27.6018 4.48096 27.6018 9.39173C27.6018 14.8548 32.0305 19.2835 37.4935 19.2835H323.608C329.071 19.2835 333.5 14.8548 333.5 9.39173C333.5 4.48096 337.481 0.5 342.392 0.5H532C536.728 0.5 540.224 0.501062 542.906 0.861658C545.574 1.22032 547.361 1.9264 548.717 3.28248C550.074 4.63857 550.78 6.42621 551.138 9.09391C551.499 11.776 551.5 15.2718 551.5 20V40.5C551.5 45.2282 551.499 48.724 551.138 51.4061C550.78 54.0738 550.074 55.8614 548.717 57.2175C547.361 58.5736 545.574 59.2797 542.906 59.6383C540.224 59.9989 536.728 60 532 60H20C15.2718 60 11.776 59.9989 9.0939 59.6383C6.42621 59.2797 4.63857 58.5736 3.28249 57.2175C1.9264 55.8614 1.22032 54.0738 0.861658 51.4061C0.501062 48.724 0.5 45.2282 0.5 40.5V14.0509Z" stroke="#452262" stroke-opacity="0.1"/>
</svg>
