<svg width="275" height="50" viewBox="0 0 275 50" fill="none" xmlns="http://www.w3.org/2000/svg">
<path d="M0 7C0 3.13401 3.13401 0 7 0H8.75C11.6495 0 14 2.35051 14 5.25C14 8.1495 16.3505 10.5 19.25 10.5H112.75C115.649 10.5 118 8.1495 118 5.25C118 2.35051 120.351 0 123.25 0H255C264.428 0 269.142 0 272.071 2.92893C275 5.85786 275 10.5719 275 20V30C275 39.4281 275 44.1421 272.071 47.0711C269.142 50 264.428 50 255 50H20C10.5719 50 5.85786 50 2.92893 47.0711C0 44.1421 0 39.4281 0 30V7Z" fill="#452262" fill-opacity="0.1"/>
<path d="M0.5 7C0.5 3.41015 3.41015 0.5 7 0.5H8.75C11.3734 0.5 13.5 2.62665 13.5 5.25C13.5 8.42564 16.0744 11 19.25 11H112.75C115.926 11 118.5 8.42564 118.5 5.25C118.5 2.62665 120.627 0.5 123.25 0.5H255C259.728 0.5 263.224 0.501062 265.906 0.861658C268.574 1.22032 270.361 1.9264 271.718 3.28249C273.074 4.63857 273.78 6.42621 274.138 9.09391C274.499 11.776 274.5 15.2718 274.5 20V30C274.5 34.7282 274.499 38.224 274.138 40.9061C273.78 43.5738 273.074 45.3614 271.718 46.7175C270.361 48.0736 268.574 48.7797 265.906 49.1383C263.224 49.4989 259.728 49.5 255 49.5H20C15.2718 49.5 11.776 49.4989 9.09391 49.1383C6.42621 48.7797 4.63857 48.0736 3.28249 46.7175C1.9264 45.3614 1.22032 43.5738 0.861658 40.9061C0.501062 38.224 0.5 34.7282 0.5 30V7Z" stroke="#452262" stroke-opacity="0.1"/>
</svg>
